<?xml version="1.0" encoding="utf-8"?>
<!-- Generator: Adobe Illustrator 25.0.0, SVG Export Plug-In . SVG Version: 6.00 Build 0)  -->
<svg version="1.1" id="Ebene_1" xmlns="http://www.w3.org/2000/svg" xmlns:xlink="http://www.w3.org/1999/xlink" x="0px" y="0px"
	 viewBox="0 0 746.6 395.5" style="enable-background:new 0 0 746.6 395.5;" xml:space="preserve">
<style type="text/css">
	.st0{fill:none;stroke:#E51010;stroke-width:1.1339;stroke-miterlimit:11.3386;}
	.st1{font-family:'ArialMT';}
	.st2{font-size:11.5707px;}
</style>
<image style="overflow:visible;enable-background:new    ;" width="713" height="440" xlink:href="C2472A384081F48B.jpeg"  transform="matrix(0.7046 0 0 0.7037 129.6423 45.2938)">
</image>
<line class="st0" x1="164.5" y1="154.4" x2="87.1" y2="134.1"/>
<line class="st0" x1="195.7" y1="78.7" x2="195.7" y2="33.6"/>
<line class="st0" x1="615" y1="105.9" x2="653.7" y2="48.2"/>
<line class="st0" x1="606.2" y1="121.7" x2="664.2" y2="118.8"/>
<line class="st0" x1="610.5" y1="152.4" x2="664.2" y2="160.7"/>
<line class="st0" x1="531.3" y1="38.7" x2="523.8" y2="152.4"/>
<line class="st0" x1="244.2" y1="269" x2="90.5" y2="272.6"/>
<line class="st0" x1="189" y1="296.2" x2="202.4" y2="378"/>
<line class="st0" x1="594.4" y1="320" x2="623.6" y2="373"/>
<line class="st0" x1="547.5" y1="320" x2="531.3" y2="378"/>
<text transform="matrix(1 0 0 1 25.1084 133.3433)" class="st1 st2">Edit Log File</text>
<text transform="matrix(1 0 0 1 490.2534 33.5547)" class="st1 st2">Edit Log File Name</text>
<text transform="matrix(1 0 0 1 119.6665 22.9463)" class="st1 st2">Add new File Selection Dialog</text>
<text transform="matrix(1 0 0 1 9.0366 272.7607)" class="st1 st2">Log File Format</text>
<text transform="matrix(1 0 0 1 179.7578 391.542)" class="st1 st2">Limit Data</text>
<text transform="matrix(1 0 0 1 593.1992 388.2852)" class="st1 st2">Start processing</text>
<text transform="matrix(1 0 0 1 672.5264 162.0088)" class="st1 st2">Remove</text>
<text transform="matrix(1 0 0 1 672.5264 175.8936)" class="st1 st2">Log File</text>
<text transform="matrix(1 0 0 1 672.5273 118.3779)" class="st1 st2">Add new</text>
<text transform="matrix(1 0 0 1 672.5273 132.2627)" class="st1 st2">Log File Line</text>
<text transform="matrix(1 0 0 1 660.0894 38.6309)" class="st1 st2">Close File</text>
<text transform="matrix(1 0 0 1 660.0894 52.5156)" class="st1 st2">Selection</text>
<text transform="matrix(1 0 0 1 660.0894 66.4004)" class="st1 st2">Dialog</text>
<text transform="matrix(1 0 0 1 493.2837 391.5044)" class="st1 st2">Activity Status</text>
</svg>
