<?xml version="1.0" encoding="utf-8"?>
<!-- Generator: Adobe Illustrator 25.0.0, SVG Export Plug-In . SVG Version: 6.00 Build 0)  -->
<svg version="1.1" id="Ebene_1" xmlns="http://www.w3.org/2000/svg" xmlns:xlink="http://www.w3.org/1999/xlink" x="0px" y="0px"
	 viewBox="0 0 817.8 566.9" style="enable-background:new 0 0 817.8 566.9;" xml:space="preserve">
<style type="text/css">
	.st0{fill:none;}
	.st1{fill:none;stroke:#FF1B00;stroke-width:1.4148;stroke-miterlimit:14.1485;}
	.st2{font-family:'LucidaSans';}
	.st3{font-size:11.3188px;}
</style>
<image style="overflow:visible;enable-background:new    ;" width="759" height="680" xlink:href="DCB5276A4649AEE8.jpeg"  transform="matrix(0.6732 0 0 0.6742 153.4492 62.6631)">
</image>
<line class="st0" x1="297.6" y1="135.8" x2="267.5" y2="42.4"/>
<line class="st1" x1="242.9" y1="145.3" x2="196.7" y2="27.3"/>
<line class="st1" x1="258" y1="203.7" x2="105.2" y2="205.6"/>
<line class="st1" x1="389.2" y1="228.2" x2="693.8" y2="229.2"/>
<line class="st1" x1="248.5" y1="278.3" x2="100.5" y2="282"/>
<line class="st1" x1="608.9" y1="317.9" x2="716.4" y2="328.2"/>
<line class="st1" x1="215.6" y1="408.5" x2="95.7" y2="400"/>
<line class="st1" x1="418.3" y1="503.7" x2="429.6" y2="543.3"/>
<text transform="matrix(1 0 0 1 167.7739 15.0356)" class="st2 st3">Log File Format Table</text>
<text transform="matrix(1 0 0 1 24.0762 205.8574)" class="st2 st3">Log File Type</text>
<text transform="matrix(1 0 0 1 40.249 278.3003)" class="st2 st3">Extraction</text>
<text transform="matrix(1 0 0 1 56.7852 291.8828)" class="st2 st3">Pattern</text>
<text transform="matrix(1 0 0 1 6.4268 393.7988)" class="st2 st3">Capture Group</text>
<text transform="matrix(1 0 0 1 11.6616 407.3813)" class="st2 st3">Configuration</text>
<text transform="matrix(1 0 0 1 399.3662 560.2803)" class="st2 st3">Action Buttons</text>
<text transform="matrix(1 0 0 1 722.0742 330.1318)" class="st2 st3">Sample Log Line</text>
<text transform="matrix(1 0 0 1 702.3633 223.5459)" class="st2 st3">Line Inclusion</text>
<text transform="matrix(1 0 0 1 701.3223 237.1284)" class="st2 st3">Configuration</text>
</svg>
