<?xml version="1.0" encoding="utf-8"?>
<!-- Generator: Adobe Illustrator 25.0.0, SVG Export Plug-In . SVG Version: 6.00 Build 0)  -->
<svg version="1.1" id="Ebene_1" xmlns="http://www.w3.org/2000/svg" xmlns:xlink="http://www.w3.org/1999/xlink" x="0px" y="0px"
	 viewBox="0 0 926.9 745.2" style="enable-background:new 0 0 926.9 745.2;" xml:space="preserve">
<style type="text/css">
	.st0{fill:none;stroke:#D45600;stroke-width:2.8318;stroke-miterlimit:18.8784;}
	.st1{opacity:0.4;fill:none;stroke:#0017E9;stroke-width:2.8318;stroke-miterlimit:18.8784;enable-background:new    ;}
	.st2{font-family:'MyriadPro-Regular';}
	.st3{font-size:16.9906px;}
</style>
<image style="overflow:visible;enable-background:new    ;" width="985" height="580" xlink:href="7811FD074CB0105A.jpeg"  transform="matrix(0.918 0 0 0.8942 13.2149 100.4436)">
</image>
<line class="st0" x1="143.5" y1="276.6" x2="139.7" y2="72.7"/>
<line class="st0" x1="811.8" y1="70.8" x2="872.2" y2="292.7"/>
<line class="st0" x1="741" y1="641" x2="733.4" y2="391.4"/>
<path class="st1" d="M197.3,469.2H42.5c-12.5,0-22.7-10.2-22.7-22.7V218.1c0-12.5,10.2-22.7,22.7-22.7h154.8
	c12.5,0,22.7,10.2,22.7,22.7v228.4C219.9,459,209.7,469.2,197.3,469.2z"/>
<path class="st1" d="M613.5,469.2H246.4c-12.5,0-22.7-10.2-22.7-22.7V218.1c0-12.5,10.2-22.7,22.7-22.7h367.2
	c12.5,0,22.7,10.2,22.7,22.7v228.4C636.2,459,626,469.2,613.5,469.2z"/>
<path class="st1" d="M880.7,469.2H658.9c-12.5,0-22.7-10.2-22.7-22.7V218.1c0-12.5,10.2-22.7,22.7-22.7h221.8
	c12.5,0,22.7,10.2,22.7,22.7v228.4C903.3,459,893.1,469.2,880.7,469.2z"/>
<text transform="matrix(1 0 0 1 105.9673 26.542)" class="st2 st3">Left-Click</text>
<text transform="matrix(1 0 0 1 73.6855 46.9307)" class="st2 st3">to show individual</text>
<text transform="matrix(1 0 0 1 97.2832 67.3193)" class="st2 st3">serivce calls</text>
<text transform="matrix(1 0 0 1 60.7959 491.8945)" class="st2 st3">Service names</text>
<text transform="matrix(1 0 0 1 355.3677 491.8945)" class="st2 st3">Service statistics area</text>
<text transform="matrix(1 0 0 1 678.1885 491.8945)" class="st2 st3">Scatter Plot Configuration</text>
<text transform="matrix(1 0 0 1 753.5132 512.2832)" class="st2 st3">Area</text>
<text transform="matrix(1 0 0 1 683.4399 676.0127)" class="st2 st3">Check Checkbox</text>
<text transform="matrix(1 0 0 1 673.4346 696.4014)" class="st2 st3">to display a specific</text>
<text transform="matrix(1 0 0 1 656.2549 716.79)" class="st2 st3">service evaluation in the</text>
<text transform="matrix(1 0 0 1 701.9409 737.1787)" class="st2 st3">scatter plot</text>
<text transform="matrix(1 0 0 1 726.9023 18.3613)" class="st2 st3">Left click to open the</text>
<text transform="matrix(1 0 0 1 718.7847 38.75)" class="st2 st3">color editor and assign </text>
<text transform="matrix(1 0 0 1 707.269 59.1387)" class="st2 st3">a color to a specific service</text>
</svg>
