<?xml version="1.0" encoding="utf-8"?>
<!-- Generator: Adobe Illustrator 25.0.0, SVG Export Plug-In . SVG Version: 6.00 Build 0)  -->
<svg version="1.1"
	 id="svg2" xmlns:cc="http://creativecommons.org/ns#" xmlns:dc="http://purl.org/dc/elements/1.1/" xmlns:inkscape="http://www.inkscape.org/namespaces/inkscape" xmlns:rdf="http://www.w3.org/1999/02/22-rdf-syntax-ns#" xmlns:sodipodi="http://sodipodi.sourceforge.net/DTD/sodipodi-0.dtd" xmlns:svg="http://www.w3.org/2000/svg"
	 xmlns="http://www.w3.org/2000/svg" xmlns:xlink="http://www.w3.org/1999/xlink" x="0px" y="0px" viewBox="0 0 716 566.9"
	 style="enable-background:new 0 0 716 566.9;" xml:space="preserve">
<style type="text/css">
	.st0{fill:none;stroke:#D42316;stroke-width:1.1337;stroke-miterlimit:11.3368;}
	.st1{font-family:'LucidaSans';}
	.st2{font-size:9.0557px;}
	.st3{font-size:9.6704px;}
</style>
<sodipodi:namedview  bordercolor="#666666" borderopacity="1.0" id="base" inkscape:current-layer="layer1" inkscape:cx="517.62677" inkscape:cy="377.85529" inkscape:document-units="px" inkscape:pageopacity="0.0" inkscape:pageshadow="2" inkscape:window-height="1138" inkscape:window-maximized="1" inkscape:window-width="1920" inkscape:window-x="-8" inkscape:window-y="-8" inkscape:zoom="1.4" pagecolor="#ffffff" showgrid="false">
	</sodipodi:namedview>
<image style="overflow:visible;enable-background:new    ;" width="727" height="513" xlink:href="3DDA26E6C454B2F9.jpeg"  transform="matrix(0.755 0 0 0.7521 57.8508 106.981)">
</image>
<line class="st0" x1="86.6" y1="143.2" x2="57.9" y2="85"/>
<line class="st0" x1="108.7" y1="139.6" x2="99.5" y2="49.2"/>
<line class="st0" x1="127.5" y1="141" x2="193.7" y2="45.3"/>
<line class="st0" x1="152.5" y1="143.2" x2="234.9" y2="92"/>
<line class="st0" x1="137.1" y1="339.9" x2="127.5" y2="515.6"/>
<line class="st0" x1="588.8" y1="142.7" x2="626.2" y2="139.6"/>
<line class="st0" x1="397.7" y1="166" x2="378.3" y2="92"/>
<line class="st0" x1="437.4" y1="419.8" x2="612.5" y2="413.8"/>
<line class="st0" x1="524.9" y1="472.4" x2="515.3" y2="534.2"/>
<line class="st0" x1="576.2" y1="474.5" x2="623.5" y2="528.6"/>
<line class="st0" x1="540.9" y1="169.4" x2="490.8" y2="84.8"/>
<line class="st0" x1="555.5" y1="164.8" x2="534.9" y2="49.2"/>
<line class="st0" x1="571.4" y1="164.8" x2="580.6" y2="72.1"/>
<line class="st0" x1="589.4" y1="168.2" x2="623.5" y2="177.1"/>
<line class="st0" x1="447" y1="282.7" x2="615.1" y2="302.9"/>
<line class="st0" x1="581.8" y1="185.5" x2="615.1" y2="236.6"/>
<text transform="matrix(1.0679 0 0 1 61.3203 32.0654)" class="st1 st2">Save LogTracker</text>
<text transform="matrix(1.0679 0 0 1 67.2095 42.9668)" class="st1 st2">Configuration</text>
<text transform="matrix(1 0 0 1 178.3955 13.6992)" class="st1 st3">Add new file</text>
<text transform="matrix(1 0 0 1 152.7695 25.3037)" class="st1 st3">configuration panel /</text>
<text transform="matrix(1 0 0 1 177.1865 36.9082)" class="st1 st3">data pipeline</text>
<text transform="matrix(1 0 0 1 6.2349 68.7593)" class="st1 st3">Load Configuration</text>
<text transform="matrix(1 0 0 1 40.8066 80.3643)" class="st1 st3">Files</text>
<text transform="matrix(1 0 0 1 205.3726 73.3984)" class="st1 st3">Open Configuration</text>
<text transform="matrix(1 0 0 1 226.4048 85.0024)" class="st1 st3">Dialog Box</text>
<text transform="matrix(1 0 0 1 330.5278 77.1094)" class="st1 st3">Dockable panel</text>
<text transform="matrix(1 0 0 1 326.6597 88.7139)" class="st1 st3">(drag to reposition)</text>
<text transform="matrix(1 0 0 1 456.9829 62.5205)" class="st1 st3">Minimize</text>
<text transform="matrix(1 0 0 1 437.4004 74.1245)" class="st1 st3">dockable panel</text>
<text transform="matrix(1 0 0 1 490.77 25.4199)" class="st1 st3">Zoom dockable</text>
<text transform="matrix(1 0 0 1 511.207 39.7158)" class="st1 st3">panel</text>
<text transform="matrix(1 0 0 1 545.8481 45.9893)" class="st1 st3">Detach dockable </text>
<text transform="matrix(1 0 0 1 543.0649 57.5942)" class="st1 st3">panel from master</text>
<text transform="matrix(1 0 0 1 572.6914 69.1367)" class="st1 st3">frame</text>
<text transform="matrix(1 0 0 1 638.1304 135.1748)" class="st1 st3">Show Help</text>
<text transform="matrix(1 0 0 1 638.1304 146.7793)" class="st1 st3">Window</text>
<text transform="matrix(1 0 0 1 623.5039 175.5127)" class="st1 st3">Close dockable</text>
<text transform="matrix(1 0 0 1 623.5039 187.1162)" class="st1 st3">panel</text>
<text transform="matrix(1 0 0 1 618.1191 237.8311)" class="st1 st3">Add new Log File</text>
<text transform="matrix(1 0 0 1 618.1191 249.4351)" class="st1 st3">to configuration</text>
<text transform="matrix(1 0 0 1 618.1191 308.5894)" class="st1 st3">Log File List</text>
<text transform="matrix(1 0 0 1 615.1631 410.9766)" class="st1 st3">Log File Format /</text>
<text transform="matrix(1 0 0 1 615.1631 422.5811)" class="st1 st3">Parser Configuration</text>
<text transform="matrix(1 0 0 1 497.2319 550.5107)" class="st1 st3">Log File</text>
<text transform="matrix(1 0 0 1 489.2539 562.1143)" class="st1 st3">read status</text>
<text transform="matrix(1 0 0 1 570.4746 539.7842)" class="st1 st3">Apply the configuration /</text>
<text transform="matrix(1 0 0 1 589.4531 551.3896)" class="st1 st3">process Log Files</text>
<text transform="matrix(1 0 0 1 75.5591 528.6367)" class="st1 st3">Show read and</text>
<text transform="matrix(1 0 0 1 62.2622 540.2412)" class="st1 st3">processing errors</text>
</svg>
